{
  "asset": {
    "version": "2.0",
    "generator": "Best Home 3D local model generator"
  },
  "scene": 0,
  "scenes": [
    {
      "nodes": [
        0,
        1,
        2,
        3,
        4,
        5,
        6,
        7,
        8,
        9
      ]
    }
  ],
  "nodes": [
    {
      "name": "gltf house main body",
      "mesh": 0,
      "translation": [
        0,
        1.45,
        0
      ],
      "scale": [
        5.2,
        2.9,
        3.8
      ]
    },
    {
      "name": "gltf upper volume",
      "mesh": 0,
      "translation": [
        -1.05,
        3.15,
        -0.25
      ],
      "scale": [
        3.2,
        1.35,
        2.95
      ]
    },
    {
      "name": "gltf roof",
      "mesh": 1,
      "translation": [
        -1.05,
        4.05,
        -0.25
      ],
      "scale": [
        3.8,
        1.05,
        3.35
      ]
    },
    {
      "name": "gltf garage",
      "mesh": 0,
      "translation": [
        1.9,
        0.95,
        1.15
      ],
      "scale": [
        1.55,
        1.25,
        0.28
      ]
    },
    {
      "name": "gltf front door",
      "mesh": 3,
      "translation": [
        -0.65,
        0.8,
        1.95
      ],
      "scale": [
        0.75,
        1.45,
        0.18
      ]
    },
    {
      "name": "gltf wide window",
      "mesh": 2,
      "translation": [
        -2.05,
        1.9,
        1.96
      ],
      "scale": [
        1.2,
        0.88,
        0.16
      ]
    },
    {
      "name": "gltf right window",
      "mesh": 2,
      "translation": [
        1.65,
        2.1,
        1.96
      ],
      "scale": [
        1.15,
        0.82,
        0.16
      ]
    },
    {
      "name": "gltf upper window",
      "mesh": 2,
      "translation": [
        -1.05,
        3.32,
        1.35
      ],
      "scale": [
        1.35,
        0.58,
        0.16
      ]
    },
    {
      "name": "gltf roof trim",
      "mesh": 4,
      "translation": [
        -1.05,
        3.55,
        1.46
      ],
      "scale": [
        3.65,
        0.12,
        0.16
      ]
    },
    {
      "name": "gltf chimney",
      "mesh": 3,
      "translation": [
        -2.35,
        4.65,
        -0.85
      ],
      "scale": [
        0.42,
        1.05,
        0.42
      ]
    }
  ],
  "meshes": [
    {
      "name": "wall cube",
      "primitives": [
        {
          "attributes": {
            "POSITION": 0,
            "NORMAL": 1
          },
          "indices": 2,
          "material": 0,
          "mode": 4
        }
      ]
    },
    {
      "name": "roof prism",
      "primitives": [
        {
          "attributes": {
            "POSITION": 3,
            "NORMAL": 4
          },
          "indices": 5,
          "material": 1,
          "mode": 4
        }
      ]
    },
    {
      "name": "glass cube",
      "primitives": [
        {
          "attributes": {
            "POSITION": 0,
            "NORMAL": 1
          },
          "indices": 2,
          "material": 2,
          "mode": 4
        }
      ]
    },
    {
      "name": "wood cube",
      "primitives": [
        {
          "attributes": {
            "POSITION": 0,
            "NORMAL": 1
          },
          "indices": 2,
          "material": 3,
          "mode": 4
        }
      ]
    },
    {
      "name": "gold cube",
      "primitives": [
        {
          "attributes": {
            "POSITION": 0,
            "NORMAL": 1
          },
          "indices": 2,
          "material": 4,
          "mode": 4
        }
      ]
    }
  ],
  "materials": [
    {
      "name": "soft white plaster",
      "pbrMetallicRoughness": {
        "baseColorFactor": [
          0.9,
          0.87,
          0.8,
          1
        ],
        "metallicFactor": 0,
        "roughnessFactor": 0.68
      }
    },
    {
      "name": "graphite roof",
      "pbrMetallicRoughness": {
        "baseColorFactor": [
          0.12,
          0.12,
          0.12,
          1
        ],
        "metallicFactor": 0,
        "roughnessFactor": 0.52
      }
    },
    {
      "name": "glass blue",
      "pbrMetallicRoughness": {
        "baseColorFactor": [
          0.36,
          0.68,
          0.86,
          0.78
        ],
        "metallicFactor": 0,
        "roughnessFactor": 0.18
      }
    },
    {
      "name": "wood door",
      "pbrMetallicRoughness": {
        "baseColorFactor": [
          0.38,
          0.19,
          0.08,
          1
        ],
        "metallicFactor": 0,
        "roughnessFactor": 0.58
      }
    },
    {
      "name": "gold trim",
      "pbrMetallicRoughness": {
        "baseColorFactor": [
          0.86,
          0.61,
          0.2,
          1
        ],
        "metallicFactor": 0.3,
        "roughnessFactor": 0.35
      }
    }
  ],
  "buffers": [
    {
      "uri": "data:application/octet-stream;base64,",
      "byteLength": 1128
    }
  ],
  "bufferViews": [
    {
      "buffer": 0,
      "byteOffset": 0,
      "byteLength": 288,
      "target": 34962
    },
    {
      "buffer": 0,
      "byteOffset": 288,
      "byteLength": 288,
      "target": 34962
    },
    {
      "buffer": 0,
      "byteOffset": 576,
      "byteLength": 72,
      "target": 34963
    },
    {
      "buffer": 0,
      "byteOffset": 648,
      "byteLength": 216,
      "target": 34962
    },
    {
      "buffer": 0,
      "byteOffset": 864,
      "byteLength": 216,
      "target": 34962
    },
    {
      "buffer": 0,
      "byteOffset": 1080,
      "byteLength": 48,
      "target": 34963
    }
  ],
  "accessors": [
    {
      "bufferView": 0,
      "componentType": 5126,
      "count": 24,
      "type": "VEC3",
      "min": [
        -0.5,
        -0.5,
        -0.5
      ],
      "max": [
        0.5,
        0.5,
        0.5
      ]
    },
    {
      "bufferView": 1,
      "componentType": 5126,
      "count": 24,
      "type": "VEC3"
    },
    {
      "bufferView": 2,
      "componentType": 5123,
      "count": 36,
      "type": "SCALAR",
      "min": [
        0
      ],
      "max": [
        23
      ]
    },
    {
      "bufferView": 3,
      "componentType": 5126,
      "count": 18,
      "type": "VEC3",
      "min": [
        -0.5,
        -0.5,
        -0.5
      ],
      "max": [
        0.5,
        0.5,
        0.5
      ]
    },
    {
      "bufferView": 4,
      "componentType": 5126,
      "count": 18,
      "type": "VEC3"
    },
    {
      "bufferView": 5,
      "componentType": 5123,
      "count": 24,
      "type": "SCALAR",
      "min": [
        0
      ],
      "max": [
        17
      ]
    }
  ]
}